<?xml version="1.0" standalone="no"?>
<!DOCTYPE svg PUBLIC "-//W3C//DTD SVG 20010904//EN"
 "http://www.w3.org/TR/2001/REC-SVG-20010904/DTD/svg10.dtd">
<svg version="1.0" xmlns="http://www.w3.org/2000/svg"
 width="155.000000pt" height="162.000000pt" viewBox="0 0 155.000000 162.000000"
 preserveAspectRatio="xMidYMid meet">

<g transform="translate(0.000000,162.000000) scale(0.100000,-0.100000)"
fill="#000000" stroke="none">
<path d="M639 1360 c-49 -26 -93 -88 -115 -161 -17 -56 -20 -60 -58 -70 -58
-16 -91 -42 -115 -92 -23 -47 -27 -120 -11 -177 5 -19 17 -89 25 -155 23 -188
43 -241 117 -311 67 -65 137 -86 294 -92 143 -5 210 5 289 42 106 49 156 130
181 297 8 57 22 144 31 193 18 103 14 149 -19 213 -23 45 -64 75 -118 87 -20
4 -28 16 -42 63 -41 141 -162 220 -260 169 -24 -13 -32 -13 -55 0 -38 19 -101
17 -144 -6z m107 -125 c20 -31 15 -119 -9 -178 -12 -28 -22 -37 -40 -37 -28 0
-53 24 -62 62 -16 62 37 178 79 178 9 0 23 -11 32 -25z m198 0 c23 -25 46 -86
46 -124 0 -12 -7 -37 -14 -56 -13 -29 -20 -35 -46 -35 -26 0 -33 6 -46 35 -24
59 -30 150 -10 180 21 32 41 32 70 0z m-391 -257 c24 -32 34 -116 18 -147 -19
-34 -67 -28 -91 12 -23 37 -27 116 -7 147 16 28 55 22 80 -12z m604 -9 c22
-69 -15 -159 -67 -159 -38 0 -54 29 -48 90 10 102 89 149 115 69z m-268 -131
c42 -23 55 -39 86 -108 8 -20 29 -44 45 -54 48 -28 64 -59 51 -98 -24 -67 -69
-85 -131 -53 -19 10 -30 11 -30 5 0 -6 -21 -20 -47 -32 -40 -18 -51 -19 -85
-9 -22 7 -46 21 -55 31 -15 17 -19 17 -44 4 -55 -28 -102 -13 -125 41 -18 44
-6 77 41 107 19 13 42 39 50 58 31 69 44 85 86 108 23 12 59 22 79 22 20 0 56
-10 79 -22z"/>
</g>
</svg>
